<svg width="600" height="600" xmlns="http://www.w3.org/2000/svg">
 <g>
  <title>Layer 1</title>
  <ellipse stroke="#000" ry="299.49997" rx="299.33331" id="svg_1" cy="300.83331" cx="301.33327" fill="#fff"/>
  <path id="svg_30" d="m280.08809,643.92269l0.56913,0l0.17587,-0.54067l0.17587,0.54067l0.56913,0l-0.46044,0.33415l0.17588,0.54067l-0.46044,-0.33416l-0.46044,0.33416l0.17588,-0.54067l-0.46044,-0.33415z" stroke-width="5" stroke="#000" fill="none"/>
  <path fill="#fff" stroke="#000" d="m728.16733,418.83864c0.02561,-0.04638 0.07247,-0.10679 -0.00804,-0.12137c-0.02243,-0.01151 -0.04486,-0.03188 -0.06726,-0.00919c-0.04983,0.01969 -0.09303,0.04722 -0.04062,0.09874c0.02324,0.03327 0.04438,0.10587 0.07071,0.11387c0.01571,-0.02698 0.03043,-0.05453 0.0452,-0.08204l0,0l0.00001,-0.00001zm-0.11009,0.12806c-0.04575,-0.08165 -0.08256,-0.16924 -0.13855,-0.24457c-0.0681,-0.07271 -0.20228,-0.0403 -0.23278,0.05349c-0.04051,0.09272 0.04689,0.20343 0.14583,0.19183c0.07508,0.00126 0.15059,0.00464 0.22549,-0.00075l0.00001,0zm0.38014,0.00276c0.0973,-0.01304 0.15325,-0.13553 0.09785,-0.21686c-0.04909,-0.08679 -0.19033,-0.08982 -0.23963,-0.00162c-0.04269,0.07131 -0.07975,0.14582 -0.11893,0.21908c0.08661,0.00495 0.17404,0.0038 0.26071,-0.0006l0,0zm0.16114,0.10443c0.03317,-0.02919 0.16162,-0.06359 0.06434,-0.09131c-0.0241,-0.00684 -0.05219,-0.03821 -0.07385,-0.02962c-0.04703,0.05847 -0.11934,0.09278 -0.19484,0.08918c-0.01478,0.00486 -0.09017,-0.00739 -0.0698,0.00652c0.05326,0.03037 0.10518,0.06335 0.16028,0.09031c0.03859,-0.02055 0.07604,-0.04319 0.11388,-0.06508l0,0l-0.00001,0zm-0.75781,0.01652c0.02837,-0.01652 0.05673,-0.03305 0.0851,-0.04957c-0.0867,-0.00431 -0.18593,0.00819 -0.25145,-0.06155c-0.01847,-0.02069 -0.03619,-0.04437 -0.06179,-0.01833c-0.03067,0.02113 -0.125,0.04278 -0.05237,0.06857c0.06325,0.03736 0.12605,0.07563 0.19086,0.11023c0.03088,-0.01448 0.05999,-0.03258 0.08967,-0.04936l0,0l-0.00002,0.00001zm0.4157,0.18437c0.03676,-0.02953 0.12579,-0.05767 0.12877,-0.08937c-0.08311,-0.04782 -0.16379,-0.10107 -0.25074,-0.14149c-0.02992,-0.01135 -0.05418,0.00612 -0.07827,0.02129c-0.07122,0.04236 -0.14415,0.0821 -0.21305,0.12816c0.09011,0.05572 0.18131,0.1098 0.27339,0.1622c0.04697,-0.02634 0.09333,-0.05376 0.13991,-0.08078l0,0l-0.00001,-0.00001zm0.36877,0.09219c0.03813,-0.02406 0.07627,-0.04812 0.1144,-0.07218c-0.00031,-0.08059 0.00097,-0.16121 -0.00123,-0.24177c-0.07697,0.04295 -0.15284,0.08804 -0.22743,0.13499c-0.00816,0.08312 -0.00402,0.16761 -0.00225,0.25115c0.03936,-0.02319 0.07776,-0.04799 0.1165,-0.07218l0.00001,-0.00001zm-0.89437,-0.05077c0.00387,-0.0687 0.01222,-0.147 -0.07062,-0.16735c-0.05232,-0.0244 -0.12483,-0.08692 -0.16514,-0.08629c-0.00126,0.0774 -0.00059,0.15482 -0.00073,0.23223c0.07728,0.04823 0.15319,0.09878 0.23214,0.14424c0.00766,-0.0399 0.00265,-0.0822 0.00435,-0.12283zm0.5534,0.26598c0.04571,-0.02886 0.09142,-0.05772 0.13713,-0.08657c-0.00021,-0.0832 0.00323,-0.16652 -0.00053,-0.24963c-0.05024,0.01441 -0.10769,0.05893 -0.16062,0.08659c-0.03963,0.02321 -0.07926,0.04643 -0.11889,0.06964c0.00078,0.08884 -0.00214,0.17783 0.00289,0.26654c0.04738,-0.02768 0.09349,-0.05749 0.14002,-0.08657l0,0zm-0.19161,-0.0467c0,-0.04442 0,-0.08885 0,-0.13327c-0.09176,-0.05363 -0.18323,-0.10776 -0.27535,-0.16077c-0.00509,0.08495 -0.00218,0.17022 -0.00295,0.25532c0.09174,0.05744 0.18253,0.11645 0.27543,0.17199c0.00362,-0.04427 0.0023,-0.08888 0.00287,-0.13327zm0.53486,0.17858c0.0374,-0.0249 0.07479,-0.0498 0.11219,-0.07471c-0.00156,-0.07895 0.00385,-0.15897 -0.00402,-0.23705c-0.07777,0.04437 -0.15283,0.09489 -0.22921,0.14225c0.00184,0.08169 -0.00377,0.16431 0.00467,0.2453c0.03945,-0.02422 0.07771,-0.05035 0.11637,-0.0758l0,0.00001zm-0.89747,-0.04426c-0.0003,-0.0414 -0.00061,-0.08279 -0.00091,-0.12419c-0.07726,-0.04834 -0.15355,-0.09829 -0.23197,-0.14473c-0.00491,0.07931 -0.00211,0.15892 -0.00285,0.23837c0.07794,0.05159 0.155,0.10455 0.23399,0.15453c0.00303,-0.04121 0.00152,-0.0827 0.00174,-0.12399l0,0.00001zm0.5562,0.27203c0.0454,-0.03015 0.09079,-0.0603 0.13619,-0.09045c-0.00011,-0.08407 0.0016,-0.16817 -0.00066,-0.25221c-0.09241,0.05698 -0.1842,0.11501 -0.27531,0.17403c-0.0103,0.08118 -0.00362,0.16487 -0.00364,0.24693c0.02828,0.01722 0.10058,-0.05911 0.14342,-0.07831l0,0l0,0.00001zm-0.19359,-0.03599c-0.00549,-0.05797 0.02361,-0.13956 -0.05006,-0.16203c-0.0743,-0.04706 -0.1483,-0.09463 -0.22357,-0.14011c-0.01097,0.07958 0.0005,0.16249 -0.00792,0.24305c0.09027,0.06526 0.1829,0.12764 0.27721,0.18688c0.00756,-0.04152 0.00286,-0.0855 0.00435,-0.12779l0,0l-0.00001,0zm-0.3157,-0.01532c-0.10987,-0.07334 -0.21974,-0.14669 -0.32961,-0.22003c0.00012,-0.22635 -0.003,-0.45275 0.00101,-0.67906c0.05502,-0.03395 0.11357,-0.06178 0.17019,-0.09292c-0.03657,-0.10469 0.01619,-0.23191 0.12224,-0.2711c0.08889,-0.03647 0.19605,-0.00356 0.25273,0.07323c0.04117,-0.02111 0.08233,-0.04222 0.1235,-0.06334c0.04139,0.0213 0.08277,0.04261 0.12416,0.06391c0.0593,-0.07034 0.1609,-0.11049 0.24895,-0.07107c0.10569,0.03715 0.16329,0.16409 0.12539,0.26861c0.05704,0.0322 0.11905,0.05737 0.17135,0.09666c0.00232,0.22501 0.00002,0.45005 -0.00019,0.67507c-0.21861,0.14468 -0.43369,0.29488 -0.65585,0.43405c-0.0646,-0.00002 -0.12036,-0.07016 -0.18031,-0.0986c-0.05795,-0.03832 -0.11576,-0.07685 -0.17355,-0.11542l0,0l-0.00001,0.00001z" id="svg_5"/>
  <path fill="#fff" stroke="#000" d="m732.80762,385.12004c-0.04044,-0.03405 -0.11627,0.00285 -0.12541,-0.0593c-0.0176,-0.05523 0.03617,-0.09838 0.07195,-0.13182c0.0626,-0.03118 0.13477,-0.03495 0.20247,-0.04924c0.08112,-0.01177 0.16558,-0.02183 0.23551,-0.06856c0.07965,-0.04983 0.16835,-0.09129 0.26431,-0.09056c0.13221,-0.00458 0.26899,-0.00014 0.39123,0.0563c0.07683,0.03467 0.15939,0.0523 0.24139,0.06926c0.06977,0.00917 0.05354,0.08441 0.07675,0.1308c0.01771,0.05327 -0.02058,0.10629 -0.07663,0.10798c-0.05927,0.01347 -0.12863,0.0148 -0.17,0.06652c-0.04238,0.04691 -0.11848,0.04529 -0.16164,0.00048c-0.01784,-0.01108 -0.02976,-0.0379 -0.05352,-0.03327c-0.22156,0.0012 -0.44323,-0.00316 -0.6647,0.00394c-0.05787,-0.00461 -0.08191,0.0672 -0.14346,0.06221c-0.03152,0.00098 -0.06136,-0.04992 -0.08823,-0.06474l0,0l-0.00002,0z" id="svg_9"/>
  <path fill="#2b2b2b" stroke="#000" d="m-117.71456,288.10599l0,0c0,-0.41145 0.33355,-0.745 0.745,-0.745l0,0c0.19759,0 0.38708,0.07849 0.52679,0.21821c0.13971,0.13971 0.21821,0.32921 0.21821,0.52679l0,0c0,0.41145 -0.33355,0.745 -0.745,0.745l0,0c-0.41145,0 -0.745,-0.33355 -0.745,-0.745zm0.3725,0l0,0c0,0.20573 0.16677,0.3725 0.3725,0.3725c0.20573,0 0.3725,-0.16677 0.3725,-0.3725c0,-0.20573 -0.16677,-0.3725 -0.3725,-0.3725l0,0c-0.20573,0 -0.3725,0.16677 -0.3725,0.3725z" id="svg_13"/>
  <rect fill="#fff" stroke="#ffffff" x="241.42423" y="9.51514" width="123.63636" height="26.36363" id="svg_4"/>
  <path fill="#444444" stroke="#000000" d="m-178.19837,63.65319l-0.01875,0l0,-0.0075l-0.04688,0l0,0.0075l-0.01875,0c-0.00552,0 -0.01,0.00448 -0.01,0.01l0,0.05188c0,0.00552 0.00448,0.01 0.01,0.01l0.08438,0c0.00552,0 0.01,-0.00448 0.01,-0.01l0,-0.05188c0,-0.00552 -0.00448,-0.01 -0.01,-0.01zm-0.04219,0.06625c-0.01671,0 -0.0303,-0.0136 -0.0303,-0.03031c0,-0.01671 0.01359,-0.03031 0.0303,-0.03031s0.03031,0.0136 0.03031,0.03031c0,0.01671 -0.01361,0.03031 -0.03031,0.03031zm0,-0.05062c-0.01122,0 -0.02031,0.0091 -0.02031,0.02031c0,0.01122 0.0091,0.02031 0.02031,0.02031c0.01122,0 0.02031,-0.00909 0.02031,-0.02031c0.00001,-0.01122 -0.00909,-0.02031 -0.02031,-0.02031z" id="svg_14"/>
  <ellipse fill="url(#svg_35)" stroke="#000" cx="65.38783" cy="261.34777" id="svg_36"/>
  <path fill="#2b2b2b" opacity="NaN" d="m54.03704,448.45696l478.77621,-19.37749l0,-235.10173l-482.24643,12.95836" id="svg_27" stroke="#000000"/>
  <path fill="#2b2b2b" opacity="NaN" d="m50.03499,206.06265c0,0 485.00286,-7.40478 483.52529,-8.27032c1.47758,0.86555 -8.58472,-15.79521 -10.0623,-16.66075c1.47758,0.86555 -14.6221,-8.39043 -16.09968,-9.25597c1.47758,0.86555 -18.64702,-6.53923 -20.1246,-7.40478c1.47758,0.86555 -18.64702,-8.39043 -20.1246,-9.25597c1.47758,0.86555 -18.64702,-8.39043 -20.1246,-9.25597c1.47758,0.86555 -30.72178,-4.68804 -32.19936,-5.55358c1.47758,0.86555 -34.7467,0.86555 -34.7467,0.86555" id="svg_29" stroke="#000000"/>
  <ellipse fill="url(#svg_35)" cx="408.20067" cy="154.16026" id="svg_34" rx="37.79699" ry="32.42387" stroke="#000"/>
  <path fill="#7f3f00" opacity="NaN" d="m422.01365,127.38508c0,0 6.07868,-5.62353 5.82935,-5.68117c0.24933,0.05763 8.19837,-6.86364 7.94904,-6.92127c0.24933,0.05763 1.6521,-8.59396 1.40277,-8.65159c0.24933,0.05763 1.18451,-8.16138 0.93518,-8.21901c0.24933,0.05763 0.24933,-6.86364 0,-6.92127c0.24933,0.05763 4.92523,0.05763 4.92523,0.05763c0,0 0,4.3258 -0.24933,4.26816c0.24933,0.05763 0.24933,6.11375 0,6.05611c0.24933,0.05763 0.24933,6.54633 0.46759,6.48869c0.24933,0.05763 -2.55622,7.41149 -2.80554,7.35385c0.24933,0.05763 -0.21826,6.11375 -0.46759,6.05611c0.24933,0.05763 -5.82935,2.22053 -6.07868,2.1629c0.24933,0.05763 -4.89417,5.24859 -5.1435,5.19096" id="svg_37" stroke="#000"/>
  <path stroke="null" id="svg_7" d="m49.13333,326.06194l4.86667,123.06248c0.13333,0.81903 464.1333,-18.63344 464.1333,-18.63344c0,0 0,-115.691 0,-115.691" opacity="NaN" fill="#f2e085"/>
  <path stroke="#000000" fill="#f2e085" opacity="NaN" d="m51.99349,223.40327c0,0 46.63458,4.18325 46.63458,4.18325c0,0 64.12255,-2.09162 62.69588,-3.06958c1.42667,0.97795 48.06125,0.97795 46.63458,0c1.42667,0.97795 32.51639,0.97795 33.03283,0c1.42667,0.97795 63.60611,-1.11366 62.17944,-2.09162c1.42666,0.97795 46.11814,0.97795 44.69148,0c1.42666,0.97795 53.89057,-5.29691 52.46391,-6.27486c1.42666,0.97797 42.23192,3.06958 42.74837,2.09162c1.42666,0.97797 46.11814,0.97797 44.69148,0c1.42666,0.97797 30.57327,-1.11366 30.57327,-1.11366c0,0 1.94311,96.21463 1.94311,96.21463c0,0 -48.57769,6.27486 -50.00435,5.29691c1.42666,0.97795 -54.92346,0.97795 -56.35012,0c1.42666,0.97795 -41.3217,0.97795 -42.74837,0c1.42666,0.97795 -23.83374,0.97795 -25.2604,0c1.42666,0.97795 -14.1182,0.97795 -15.54486,0c1.42666,0.97795 -14.1182,0.97795 -15.54486,0c1.42666,0.97795 -33.54927,3.06958 -34.97594,2.09162c1.42667,0.97795 -27.71995,0.97795 -29.14662,0c1.42667,0.97795 -33.54927,0.97795 -34.97594,0c1.42667,0.97795 -49.09414,7.25283 -50.5208,6.27486c1.42667,0.97795 -37.43548,0.97795 -38.86215,0c1.42667,0.97795 -18.00441,-3.20529 -19.43108,-4.18325c1.42667,0.97795 -33.54926,3.06958 -34.97594,2.09162c1.42667,0.97795 -19.94752,5.1612 -21.37419,4.18325" id="svg_31"/>
  <path id="svg_8" d="m51.66709,320.3653" opacity="NaN" stroke="#000000" fill="#2b2b2b"/>
  <path id="svg_10" d="m51.68321,323.49031l21.87917,-2.39617l28.26542,0l29.83573,0l51.03479,2.34375l19.62877,-2.34375l29.05058,-2.34375l49.46449,0l56.53085,-4.68751l62.81205,2.34375l40.82784,0l78.51507,-6.25001l0.78515,13.28127l-78.51507,3.90625l-61.24175,3.125l-48.67934,-0.78125l-31.40603,0l-44.75359,0.78125l-46.32389,0l-40.82784,0.78125l-46.32389,1.5625l-41.61299,-1.5625l-32.19118,2.34375" opacity="NaN" fill="#2b2b2b"/>
 </g>
 <defs>
  <linearGradient id="svg_35" x1="0" y1="0" x2="1" y2="0" spreadMethod="pad">
   <stop stop-color="#ff0000" stop-opacity="0.99609" offset="0"/>
   <stop stop-color="#7f0000" stop-opacity="0.99609" offset="1"/>
  </linearGradient>
 </defs>
</svg>