<svg width="600" height="600" xmlns="http://www.w3.org/2000/svg">
 <g>
  <title>Layer 1</title>
  <ellipse fill="#fff" cx="298.74988" cy="300.75004" id="svg_1" rx="299.33331" ry="299.49997" stroke="#000"/>
  <path fill="none" stroke="#000" stroke-width="5" d="m280.08809,643.92269l0.56913,0l0.17587,-0.54067l0.17587,0.54067l0.56913,0l-0.46044,0.33415l0.17588,0.54067l-0.46044,-0.33416l-0.46044,0.33416l0.17588,-0.54067l-0.46044,-0.33415z" id="svg_30"/>
  <path id="svg_6" d="m-97.57258,98.16746c-0.0841,-0.01521 -0.1131,-0.12145 -0.06296,-0.1851c0.06654,-0.09844 0.20888,-0.1648 0.3204,-0.10269c0.00222,-0.34665 0.00094,-0.69332 0.00128,-1.03999c0.27807,-0.0561 0.55675,-0.10931 0.83493,-0.16492c-0.0006,0.38852 -0.0012,0.77704 -0.00181,1.16556c-0.04358,0.11751 -0.1844,0.199 -0.30701,0.16256c-0.073,-0.02185 -0.0905,-0.11608 -0.04985,-0.17381c0.05566,-0.08612 0.15927,-0.14525 0.26343,-0.12912c0.02972,-0.00301 0.07349,0.04512 0.06093,-0.00932c0,-0.23356 0,-0.46711 0,-0.70067c-0.25526,0.05139 -0.51102,0.10033 -0.7664,0.15116c-0.00114,0.28176 0.00283,0.56362 -0.00294,0.8453c-0.0176,0.09456 -0.11057,0.16004 -0.20029,0.17913c-0.02964,0.00353 -0.06005,0.00659 -0.08971,0.00191l0,0zm0.66587,-1.17572c0.13115,-0.02581 0.26237,-0.05131 0.39346,-0.07741c0.01668,-0.06647 -0.05798,-0.0233 -0.0945,-0.02168c-0.22394,0.04421 -0.448,0.08776 -0.67191,0.13213c-0.01668,0.06647 0.05798,0.0233 0.0945,0.02168c0.0928,-0.01829 0.18562,-0.03652 0.27844,-0.05473l0.00001,0.00001zm0,-0.11633c0.13115,-0.02581 0.26237,-0.05131 0.39346,-0.07741c0.01668,-0.06647 -0.05798,-0.0233 -0.0945,-0.02168c-0.22394,0.04421 -0.448,0.08776 -0.67191,0.13213c-0.01668,0.06647 0.05798,0.0233 0.0945,0.02168c0.0928,-0.01829 0.18562,-0.03652 0.27844,-0.05473l0.00001,0.00001z" stroke="#000" fill="#fff"/>
  <path fill="#000000" stroke="null" opacity="NaN" id="svg_2"/>
  <g id="svg_39">
   <rect transform="rotate(-45 172.876 342.801)" stroke="#000" rx="15" id="svg_31" height="38.75179" width="190.7366" y="323.42468" x="77.50772" fill="#2b2b2b"/>
   <rect transform="rotate(-45 293.819 223.608)" stroke="#000" rx="50" id="svg_32" height="198.46034" width="248.93471" y="124.37739" x="169.35177" fill="#2b2b2b"/>
   <path transform="rotate(70 293.002 231.938)" stroke="#000" id="svg_37" d="m195.16675,170.90197c-1.83068,8.45858 3.3544,16.50783 7.40183,23.81493c8.623,12.88848 18.62732,25.29322 31.18219,35.31002c8.56652,6.3472 16.28515,13.65695 25.98517,18.68596c12.68121,7.6912 26.29755,13.98943 40.41658,19.22722c10.49843,4.11836 21.50822,7.0401 32.75704,8.95636c3.27192,0.76343 12.41979,2.91955 6.72894,-2.13921c-4.72049,-1.7941 -9.74225,-3.10316 -14.4887,-4.97433c-23.042,-8.51575 -47.52684,-15.99791 -66.11539,-31.53417c-3.08016,-3.68201 5.91001,1.9888 7.4591,3.54389c15.50772,9.93793 33.22405,16.60149 50.6961,23.18348c8.88822,2.65068 18.60396,8.30092 28.04679,4.29133c8.15728,-2.80557 -1.95076,-3.23563 -5.55494,-4.30421c-16.01988,-4.10022 -32.22852,-8.04156 -46.93077,-15.29671c-8.39521,-2.76463 -15.45114,-7.85422 -22.99293,-12.04923c-8.1478,-5.06598 -15.60484,-10.98513 -23.53697,-16.32766c-5.19099,-3.54293 -10.3486,-7.119 -14.64618,-11.55953c-7.26748,-6.54608 -14.31568,-13.27828 -20.90266,-20.38703c-4.30331,-4.37306 -9.14449,-8.37682 -12.16936,-13.62142l-3.33584,-4.81969zm169.18271,82.61771c-0.99327,-0.02818 -2.0187,0.16754 -2.87771,0.68301c-6.41396,2.88666 -5.03955,8.24759 -8.70467,12.3714c-2.74885,3.29904 -5.95582,4.94857 -10.53722,6.1857c0.91628,1.64951 2.74883,4.12379 2.74883,6.1857c0,4.53617 -5.95581,8.65996 -10.53722,8.24759c-1.83257,-0.41238 -5.95582,-2.47428 -7.33025,0c-0.45814,0.82478 -0.45814,1.64953 0,2.06191c0,1.64953 2.2907,2.47428 4.12326,3.29904c5.03955,1.23713 10.53724,-0.41238 14.6605,-2.88666c3.20698,-1.64951 5.49768,-4.53617 6.41396,-7.83523l0.91628,-5.36092c0.45814,-1.64951 2.29071,-2.06191 4.58141,-4.94855c2.74884,-3.29904 5.49768,-9.07238 9.16281,-11.54665c1.37441,-0.82476 2.74883,-1.23715 4.5814,-1.64953c-0.91628,-1.23713 -1.83257,-2.06189 -2.74885,-3.29902c-0.91628,-0.4124 -1.83255,-1.23715 -2.74883,-1.23715c-0.51541,-0.15463 -1.10778,-0.25372 -1.7037,-0.27063zm19.39938,15.56734c-1.72239,-0.01721 -3.52196,0.32217 -5.32588,0.7861l3.66512,2.06191c-0.9163,1.64951 -3.20697,4.94855 -2.74885,7.01046c0.45816,4.12379 6.87211,4.12379 9.62096,1.64951c3.20699,-3.29904 3.20699,-8.24759 -1.37441,-10.72187c-1.20262,-0.54124 -2.49731,-0.77271 -3.83693,-0.7861zm-8.83353,2.02325c-0.35864,0.00114 -0.70917,0.00419 -1.05944,0.01289c-2.53894,0.12524 -5.07688,0.29759 -7.61657,0.39949c-1.59561,0.0185 -3.22434,-0.00281 -4.76754,0.41238c-2.09315,1.20256 -3.49246,3.19632 -4.30939,5.27072c-0.10995,0.29895 -0.20324,0.60612 -0.27202,0.91496c2.5479,1.03872 5.39104,0.92742 8.11767,0.83766c1.65216,-0.03976 3.30479,0.14585 4.95365,0.21908c1.17929,0.04701 2.35584,0.19196 3.53627,0.15465c1.44747,-0.04322 2.7879,-0.78193 3.55057,-1.88149c0.65922,-0.93974 1.28293,-1.91168 1.68941,-2.96399c0.32832,-0.94445 0.38896,-2.257 -0.70152,-2.82222c-0.94903,-0.47176 -2.04517,-0.55763 -3.1211,-0.55413l0.00001,0.00001zm1.67509,9.48472c-0.45816,0.41238 -0.91628,0.41238 -1.37443,0.82476c-0.45814,2.06191 5.4977,7.01047 6.41397,2.47428c-2.29071,-0.82476 -3.66515,-1.64953 -5.03954,-3.29904l0,-0.00001z" fill="#333333"/>
   <path transform="rotate(-160 287.05 224.795)" stroke="#000" id="svg_38" d="m188.17447,296.56472c-1.85015,-9.94597 3.39005,-19.41061 7.4805,-28.00263c8.71465,-15.15483 18.8253,-29.74087 31.51361,-41.51906c8.65757,-7.46331 16.45823,-16.05843 26.26134,-21.97176c12.816,-9.04364 26.57705,-16.44938 40.84614,-22.6082c10.61001,-4.84255 21.73682,-8.27804 33.10519,-10.53128c3.30671,-0.89766 12.55179,-3.43293 6.80046,2.51539c-4.77065,2.10958 -9.84578,3.64883 -14.64268,5.84903c-23.2869,10.01319 -48.03197,18.81105 -66.8181,37.07925c-3.1129,4.32947 5.97282,-2.33852 7.53838,-4.16706c15.67254,-11.68544 33.57717,-19.52075 51.23492,-27.26014c8.9827,-3.11678 18.80169,-9.76057 28.34488,-5.04593c8.24397,3.29891 -1.9715,3.80459 -5.61398,5.06108c-16.19015,4.82122 -32.57106,9.45563 -47.42957,17.98654c-8.48443,3.25077 -15.61536,9.23534 -23.23731,14.16801c-8.2344,5.9568 -15.77069,12.91679 -23.78713,19.19877c-5.24616,4.16593 -10.45859,8.37084 -14.80185,13.5922c-7.34473,7.69717 -14.46783,15.61318 -21.12482,23.97196c-4.34905,5.14203 -9.24168,9.84982 -12.2987,16.01665l-3.37128,5.6672zm170.98085,-97.14549c-1.00383,0.03314 -2.04016,-0.197 -2.9083,-0.80311c-6.48213,-3.39426 -5.09311,-9.69786 -8.79719,-14.54682c-2.77807,-3.87915 -6.01913,-5.81874 -10.64922,-7.27341c0.92602,-1.93957 2.77805,-4.84894 2.77805,-7.27341c0,-5.33383 -6.01911,-10.18277 -10.64921,-9.69787c-1.85205,0.48489 -6.01913,2.90938 -7.40816,0c-0.46301,-0.9698 -0.46301,-1.93958 0,-2.42447c0,-1.93959 2.31505,-2.90938 4.16708,-3.87915c5.0931,-1.45467 10.64923,0.48489 14.81632,3.39426c3.24106,1.93957 5.55611,5.33384 6.48214,9.213l0.92601,6.3036c0.46301,1.93957 2.31506,2.42448 4.63011,5.81872c2.77805,3.87915 5.55611,10.6677 9.2602,13.57705c1.38902,0.96979 2.77805,1.45469 4.63009,1.93959c-0.92602,1.45467 -1.85205,2.42445 -2.77807,3.87912c-0.92602,0.48492 -1.85203,1.45469 -2.77805,1.45469c-0.52089,0.18183 -1.11955,0.29833 -1.72181,0.31822zm19.60555,-18.30475c-1.74069,0.02024 -3.55939,-0.37882 -5.38249,-0.92433l3.70407,-2.42448c-0.92604,-1.93955 -3.24105,-5.81872 -2.77807,-8.24319c0.46303,-4.84893 6.94515,-4.84893 9.72322,-1.93957c3.24108,3.87914 3.24108,9.69787 -1.38902,12.60724c-1.21541,0.63641 -2.52385,0.90859 -3.87772,0.92433zm-8.92742,-2.37903c-0.36245,-0.00134 -0.71671,-0.00493 -1.0707,-0.01516c-2.56593,-0.14726 -5.13085,-0.34992 -7.69753,-0.46974c-1.61257,-0.02176 -3.2586,0.0033 -4.8182,-0.48489c-2.1154,-1.41402 -3.52958,-3.75838 -4.35519,-6.19754c-0.11112,-0.35152 -0.2054,-0.71269 -0.27491,-1.07585c2.57498,-1.22137 5.44834,-1.0905 8.20395,-0.98496c1.66972,0.04675 3.33991,-0.17149 5.0063,-0.25759c1.19182,-0.05528 2.38088,-0.22571 3.57385,-0.18184c1.46286,0.05081 2.81754,0.91943 3.58831,2.21233c0.66624,1.10499 1.29657,2.24784 1.70737,3.48519c0.33181,1.11053 0.39309,2.65388 -0.70898,3.31849c-0.95913,0.55472 -2.06692,0.65569 -3.15427,0.65157l0.00001,0zm1.69289,-11.15256c-0.46303,-0.48489 -0.92602,-0.48489 -1.38904,-0.96978c-0.46301,-2.42448 5.55613,-8.24323 6.48214,-2.90938c-2.31506,0.96979 -3.7041,1.93959 -5.0931,3.87915l0,0z" fill="#333333"/>
  </g>
  <g id="svg_40">
   <ellipse stroke="#000" ry="34.68886" rx="33.51699" id="svg_33" cy="406.22995" cx="382.03486" fill="#444444"/>
   <ellipse stroke="#000" ry="7.34527" rx="7.73589" id="svg_34" cy="421.07363" cx="396.09726" fill="#fff"/>
   <ellipse stroke="#000" ry="7.34527" rx="7.73589" id="svg_35" cy="385.91759" cx="389.8473" fill="#fff"/>
   <ellipse stroke="#000" ry="8.51714" rx="7.34527" id="svg_36" cy="405.83935" cx="362.89433" fill="#fff"/>
  </g>
 </g>

</svg>