<svg width="600" height="600" xmlns="http://www.w3.org/2000/svg">
 <g>
  <title>Layer 1</title>
  <ellipse fill="#fff" cx="299.99994" cy="299.49998" id="svg_1" rx="299.33331" ry="299.49997" stroke="#000"/>
  <rect transform="rotate(2 315.556 429.668)" stroke="#4a5e7c" id="svg_9" height="41.17647" width="725.09331" y="409.07978" x="-46.99028" stroke-width="10" fill="#fff"/>
  <path fill="none" stroke="#000" stroke-width="5" d="m280.08809,643.92269l0.56913,0l0.17587,-0.54067l0.17587,0.54067l0.56913,0l-0.46044,0.33415l0.17588,0.54067l-0.46044,-0.33416l-0.46044,0.33416l0.17588,-0.54067l-0.46044,-0.33415z" id="svg_30"/>
  <path id="svg_6" d="m-97.57258,98.16746c-0.0841,-0.01521 -0.1131,-0.12145 -0.06296,-0.1851c0.06654,-0.09844 0.20888,-0.1648 0.3204,-0.10269c0.00222,-0.34665 0.00094,-0.69332 0.00128,-1.03999c0.27807,-0.0561 0.55675,-0.10931 0.83493,-0.16492c-0.0006,0.38852 -0.0012,0.77704 -0.00181,1.16556c-0.04358,0.11751 -0.1844,0.199 -0.30701,0.16256c-0.073,-0.02185 -0.0905,-0.11608 -0.04985,-0.17381c0.05566,-0.08612 0.15927,-0.14525 0.26343,-0.12912c0.02972,-0.00301 0.07349,0.04512 0.06093,-0.00932c0,-0.23356 0,-0.46711 0,-0.70067c-0.25526,0.05139 -0.51102,0.10033 -0.7664,0.15116c-0.00114,0.28176 0.00283,0.56362 -0.00294,0.8453c-0.0176,0.09456 -0.11057,0.16004 -0.20029,0.17913c-0.02964,0.00353 -0.06005,0.00659 -0.08971,0.00191l0,0zm0.66587,-1.17572c0.13115,-0.02581 0.26237,-0.05131 0.39346,-0.07741c0.01668,-0.06647 -0.05798,-0.0233 -0.0945,-0.02168c-0.22394,0.04421 -0.448,0.08776 -0.67191,0.13213c-0.01668,0.06647 0.05798,0.0233 0.0945,0.02168c0.0928,-0.01829 0.18562,-0.03652 0.27844,-0.05473l0.00001,0.00001zm0,-0.11633c0.13115,-0.02581 0.26237,-0.05131 0.39346,-0.07741c0.01668,-0.06647 -0.05798,-0.0233 -0.0945,-0.02168c-0.22394,0.04421 -0.448,0.08776 -0.67191,0.13213c-0.01668,0.06647 0.05798,0.0233 0.0945,0.02168c0.0928,-0.01829 0.18562,-0.03652 0.27844,-0.05473l0.00001,0.00001z" stroke="#000" fill="#fff"/>
  <path fill="#000000" stroke="null" opacity="NaN" id="svg_2"/>
  <rect fill="#fff" x="276.1217" y="323.16468" width="51.19833" height="9.53553" id="svg_14" stroke-width="10" rx="5" transform="rotate(-30 209.971 306.442) matrix(2.3728 0.408868 -0.799992 2.08748 -243.607 -501.474)" stroke="#AF84A3"/>
  <rect fill="#fff" x="281.41865" y="183.47417" width="112.89152" height="9.53553" id="svg_18" stroke-width="15" rx="5" transform="rotate(70 365.526 267.717) matrix(-0.318706 1.70224 -1.80747 -0.30015 813.447 -250.908)" stroke="#AF84A3"/>
  <ellipse transform="rotate(90 522.739 270.004)" fill="#fff" stroke-width="15" cx="522.7393" cy="270.00413" id="svg_19" rx="29.36565" ry="31.11291" stroke="#AF84A3"/>
  <rect fill="#fff" x="420.05143" y="240.12919" width="51.19833" height="9.53553" id="svg_20" stroke-width="10" rx="5" transform="rotate(90 414.041 302.078) matrix(1.29779 1.22223 -1.29779 1.22223 153.505 -541.93)" stroke="#AF84A3"/>
  <rect fill="#fff" x="341.41816" y="138.62588" width="61.35859" height="9.53553" id="svg_21" stroke-width="10" rx="5" transform="rotate(70 385.796 382.478) matrix(-1.63661 -0.641914 0.576887 -1.71213 912.052 866.841)" stroke="#AF84A3"/>
  <rect fill="#fff" x="229.66061" y="229.98428" width="61.35859" height="9.53553" id="svg_23" stroke-width="10" rx="5" transform="rotate(80 86.6019 346.833) matrix(0.282075 2.14647 -1.75435 0.412195 425.003 -308.742)" stroke="#AF84A3"/>
  <rect fill="#fff" x="183.25655" y="265.31625" width="61.35859" height="9.53553" id="svg_4" stroke-width="10" rx="5" transform="matrix(0.193774 0.773258 -1.20517 0.148492 317.701 187.624)" stroke="#AF84A3"/>
  <rect fill="#fff" x="431.98451" y="229.39931" width="51.19833" height="9.53553" id="svg_5" stroke-width="10" rx="5" transform="rotate(70 443.453 303.549) matrix(1.29779 1.22223 -1.29779 1.22223 153.505 -541.93)" stroke="#AF84A3"/>
  <rect fill="#fff" x="307.54137" y="147.80793" width="61.35859" height="9.53553" id="svg_7" stroke-width="10" rx="5" transform="rotate(60 433.589 385.419) matrix(-1.3633 -0.588996 0.480549 -1.57099 821.366 824.324)" stroke="#AF84A3"/>
  <rect fill="#fff" x="186.89348" y="246.37729" width="61.35859" height="9.53553" id="svg_8" stroke-width="10" rx="5" transform="matrix(0.193774 0.773258 -1.20517 0.148492 317.701 187.624)" stroke="#AF84A3"/>
  <ellipse stroke="#ffffff" stroke-width="50" fill="none" cx="299.26466" cy="299.49998" id="svg_10" rx="325.06863" ry="328.91175"/>
 </g>

</svg>