<svg width="600" height="600" xmlns="http://www.w3.org/2000/svg">
 <g>
  <title>Layer 1</title>
  <ellipse fill="#fff" cx="299.99994" cy="299.49998" id="svg_1" rx="299.33331" ry="299.49997" stroke="#000"/>
  <path fill="none" stroke="#000" stroke-width="5" d="m280.08809,643.92269l0.56913,0l0.17587,-0.54067l0.17587,0.54067l0.56913,0l-0.46044,0.33415l0.17588,0.54067l-0.46044,-0.33416l-0.46044,0.33416l0.17588,-0.54067l-0.46044,-0.33415z" id="svg_30"/>
  <path id="svg_6" d="m-97.57258,98.16746c-0.0841,-0.01521 -0.1131,-0.12145 -0.06296,-0.1851c0.06654,-0.09844 0.20888,-0.1648 0.3204,-0.10269c0.00222,-0.34665 0.00094,-0.69332 0.00128,-1.03999c0.27807,-0.0561 0.55675,-0.10931 0.83493,-0.16492c-0.0006,0.38852 -0.0012,0.77704 -0.00181,1.16556c-0.04358,0.11751 -0.1844,0.199 -0.30701,0.16256c-0.073,-0.02185 -0.0905,-0.11608 -0.04985,-0.17381c0.05566,-0.08612 0.15927,-0.14525 0.26343,-0.12912c0.02972,-0.00301 0.07349,0.04512 0.06093,-0.00932c0,-0.23356 0,-0.46711 0,-0.70067c-0.25526,0.05139 -0.51102,0.10033 -0.7664,0.15116c-0.00114,0.28176 0.00283,0.56362 -0.00294,0.8453c-0.0176,0.09456 -0.11057,0.16004 -0.20029,0.17913c-0.02964,0.00353 -0.06005,0.00659 -0.08971,0.00191l0,0zm0.66587,-1.17572c0.13115,-0.02581 0.26237,-0.05131 0.39346,-0.07741c0.01668,-0.06647 -0.05798,-0.0233 -0.0945,-0.02168c-0.22394,0.04421 -0.448,0.08776 -0.67191,0.13213c-0.01668,0.06647 0.05798,0.0233 0.0945,0.02168c0.0928,-0.01829 0.18562,-0.03652 0.27844,-0.05473l0.00001,0.00001zm0,-0.11633c0.13115,-0.02581 0.26237,-0.05131 0.39346,-0.07741c0.01668,-0.06647 -0.05798,-0.0233 -0.0945,-0.02168c-0.22394,0.04421 -0.448,0.08776 -0.67191,0.13213c-0.01668,0.06647 0.05798,0.0233 0.0945,0.02168c0.0928,-0.01829 0.18562,-0.03652 0.27844,-0.05473l0.00001,0.00001z" stroke="#000" fill="#fff"/>
  <path fill="#000000" stroke="null" opacity="NaN" id="svg_2"/>
  <g id="svg_25" stroke="null">
   <rect fill="#fff" x="298.62956" y="369.01501" width="51.19833" height="9.53553" id="svg_14" stroke-width="10" rx="5" transform="matrix(0.916876 0.89977 -0.916876 0.89977 306.694 -292.342)" stroke="#AF84A3"/>
   <rect fill="#fff" x="340.94133" y="413.33129" width="78.72746" height="9.53553" id="svg_15" stroke-width="10" rx="5" transform="matrix(0 1.27247 -1.29666 0 828.133 -82.0867)" stroke="#AF84A3"/>
   <rect fill="#fff" x="210.40338" y="320.27351" width="51.19833" height="9.53553" id="svg_16" stroke-width="10" rx="5" transform="matrix(0.916876 -0.89977 0.916876 0.89977 -316.685 267.046)" stroke="#AF84A3"/>
   <rect fill="#fff" x="146.97647" y="369.10829" width="78.72746" height="9.53553" id="svg_17" stroke-width="10" rx="5" transform="matrix(1.12294 -0.636233 0.648329 1.10199 -317.351 99.4804)" stroke="#AF84A3"/>
   <rect fill="#fff" x="295.80263" y="289.54584" width="112.89152" height="9.53553" id="svg_18" stroke-width="15" rx="5" transform="matrix(-0.225162 1.25314 -1.27696 -0.220962 696.115 -125.139)" stroke="#AF84A3"/>
   <ellipse fill="#fff" stroke-width="15" cx="265.98798" cy="126.21875" id="svg_19" rx="20.74654" ry="22.9044" stroke="#AF84A3"/>
   <rect fill="#fff" x="313.62955" y="279.01501" width="51.19833" height="9.53553" id="svg_20" stroke-width="10" rx="5" transform="matrix(0.916876 0.89977 -0.916876 0.89977 229.872 -339.381)" stroke="#AF84A3"/>
   <rect fill="#fff" x="392.78286" y="244.62242" width="61.35859" height="9.53553" id="svg_21" stroke-width="10" rx="5" transform="matrix(-0.648329 1.10199 -1.12294 -0.636233 874.902 -96.21)" stroke="#AF84A3"/>
   <rect fill="#fff" x="227.78102" y="220.53437" width="51.19833" height="9.53553" id="svg_22" stroke-width="10" rx="5" transform="matrix(0.993298 -0.817926 0.833476 0.974766 -218.403 202.453)" stroke="#AF84A3"/>
   <rect fill="#fff" x="284.78286" y="285.62241" width="61.35859" height="9.53553" id="svg_23" stroke-width="10" rx="5" transform="matrix(-0.648329 1.10199 -1.12294 -0.636233 710.883 101.061)" stroke="#AF84A3"/>
  </g>
  <ellipse ry="36.02984" rx="35.29454" id="svg_3" cy="421.43013" cx="392.85134" stroke="#000" fill="#4a5e7c"/>
  <line id="svg_11" y2="386.2955" x2="397.56093" y1="412.68435" x1="358.20913" stroke="#000" fill="none"/>
  <line id="svg_12" y2="391.38808" x2="410.06092" y1="425.6473" x1="357.74617" stroke="#000" fill="none"/>
  <line stroke="#000" id="svg_13" y2="398.79548" x2="420.70905" y1="438.1076" x1="361.34404" fill="none"/>
  <line id="svg_26" y2="409.44362" x2="425.33868" y1="448.33246" x1="369.32023" stroke="#000" fill="none"/>
  <line id="svg_27" y2="421.48064" x2="428.11645" y1="454.81393" x1="380.43132" stroke="#000" fill="none"/>
  <line stroke="#000" id="svg_28" y2="436.29544" x2="424.41275" y1="457.38007" x1="393.60591" fill="none"/>
 </g>

</svg>