<svg width="600" height="600" xmlns="http://www.w3.org/2000/svg">
 <g>
  <title>Layer 1</title>
  <rect fill="none" stroke-width="40" x="27.22309" y="28.37871" width="300" height="300" id="svg_1" stroke="#000000" rx="20"/>
  <rect id="svg_15" height="122.3841" width="282.08042" y="260.08137" x="273.51376" stroke-width="20" stroke="#ffffff" fill="#ffffff"/>
  <g id="svg_9">
   <rect fill="#ffffff" stroke-width="30" x="667.29844" y="95.39572" width="300" height="300" id="svg_2" stroke="#000000" rx="20"/>
   <line id="svg_3" y2="159.98511" x2="919.76147" y1="159.98511" x1="710.81302" stroke-width="40" stroke="#000000" fill="none"/>
   <line id="svg_4" y2="239.08703" x2="919.76147" y1="239.08703" x1="710.81302" stroke-width="40" stroke="#000000" fill="none"/>
   <line id="svg_5" y2="318.18895" x2="919.76147" y1="318.18895" x1="710.81302" stroke-width="40" stroke="#000000" fill="none"/>
  </g>
  <path stroke="#000000" id="svg_10" d="m510.09321,290.81025c-28.15957,-19.3971 -58.53122,-34.93539 -83.44534,-37.05373c-1.35631,-0.13741 -2.76106,-0.21756 -4.24654,-0.24046l-163.96815,0c-2.61574,0 -5.19919,0.72138 -7.03989,2.06109c-1.82456,1.30535 -2.90638,3.13743 -2.90638,5.00386l0,294.84967c0,1.85498 1.01723,3.6298 2.90638,4.98096c1.88915,1.32825 4.37571,2.04963 7.03989,2.04963l296.51513,0c2.61574,0 5.11845,-0.70993 7.0076,-2.04963c1.88915,-1.33971 2.93867,-3.11453 2.93867,-4.98096l0,-196.20385c-0.58128,-22.77499 -25.73759,-47.61107 -54.80137,-68.41657zm34.87653,257.53258l-276.62259,0l0,-280.74269l154.07032,0l0,0.0229c6.71696,-0.28626 12.51357,4.41988 16.95387,15.18333c4.03664,10.24817 5.05387,23.61087 5.03772,32.87431c0.03229,6.79013 -0.43596,11.34742 -0.43596,11.34742l-0.79118,7.46571l10.59213,0.08015c0.04844,0 24.47816,0.20611 48.43963,4.06492c23.02497,3.52675 41.02837,10.55734 42.70761,18.51541c0.06459,0.70993 0.08073,1.41986 0.06459,2.08399l0,189.10455l-0.01615,0z" stroke-width="20" fill="#ffffff"/>
 </g>

</svg>