<svg width="600" height="600" xmlns="http://www.w3.org/2000/svg">
 <g>
  <title>Layer 1</title>
  <rect fill="none" stroke-width="30" x="69.8661" y="134.55691" width="427.90712" height="430.2327" id="svg_1" rx="20" stroke="#000000"/>
  <rect fill="#ffffff" stroke="#ffffff" stroke-width="30" x="325.04981" y="26.51202" width="248.83749" height="227.90723" id="svg_7"/>
  <path transform="rotate(10 366.352 235.684)" stroke="#000000" id="svg_2" d="m496.41886,57.04597l-46.2521,-29.80954c-11.66955,-7.51366 -27.04621,-3.89734 -34.39924,8.07127l-18.23057,29.75391l88.48222,56.986l18.24494,-29.7401c7.32512,-11.98285 3.82911,-27.76463 -7.84526,-35.26155l0,0zm-256.33632,265.07592l88.48704,56.98542l144.21921,-235.41982l-88.52916,-57.0003l-144.1771,235.43468l0.00001,0.00002zm-13.51638,72.4021l-1.95436,53.52542l46.18114,-25.04746l42.9154,-23.23505l-85.36628,-55.01043l-1.77589,49.76753l0,0l-0.00001,-0.00002z" stroke-width="5" fill="#000000"/>
 </g>

</svg>