<svg width="600" height="600" xmlns="http://www.w3.org/2000/svg">
 <g>
  <title>Layer 1</title>
  <path id="svg_8" d="m600.85717,152.46724l0,-0.10629l-0.57014,0.3292l0.57014,0.3292l0,-0.11405c0.15471,-0.00007 0.42632,0.01315 0.42632,0.10686c0,0.13093 -0.28366,0.20078 -0.28366,0.20078l0,0.10039c0,0 0.6372,0.02177 0.6372,-0.46265c0,-0.38058 -0.54574,-0.39488 -0.77986,-0.38346z" stroke-width="0" stroke="#000000" fill="#000000"/>
  <path id="svg_10" d="m-260.52849,27.38153l0,-0.10629l-0.57014,0.3292l0.57014,0.3292l0,-0.11405c0.15471,-0.00007 0.42632,0.01315 0.42632,0.10686c0,0.13093 -0.28366,0.20078 -0.28366,0.20078l0,0.10039c0,0 0.6372,0.02177 0.6372,-0.46265c0,-0.38058 -0.54574,-0.39488 -0.77986,-0.38346z" stroke-width="0" stroke="#000000" fill="#000000"/>
  <ellipse stroke="#000000" ry="220.00002" rx="228.57141" id="svg_11" cy="304.18999" cx="297.52426" stroke-width="40" fill="none"/>
  <rect transform="rotate(40 403.132 56.1372)" stroke="#ffffff" id="svg_15" height="160.02805" width="109.97225" y="-23.87683" x="348.14594" stroke-width="40" fill="#ffffff"/>
  <path id="svg_14" d="m275.94183,90.50264l-47.67117,-72.85716l85.7143,72.85716l-85.7143,72.85713l47.67117,-72.85713z" stroke-width="40" stroke="#000000" fill="none"/>
 </g>

</svg>